<?xml version="1.0" encoding="UTF-8" standalone="no"?>
<svg
   viewBox="0 0 448 512"
   version="1.1"
   id="svg4"
   sodipodi:docname="floppy-disk-solid.svg"
   inkscape:version="1.1.1 (3bf5ae0d25, 2021-09-20)"
   xmlns:inkscape="http://www.inkscape.org/namespaces/inkscape"
   xmlns:sodipodi="http://sodipodi.sourceforge.net/DTD/sodipodi-0.dtd"
   xmlns="http://www.w3.org/2000/svg"
   xmlns:svg="http://www.w3.org/2000/svg">
  <defs
     id="defs8" />
  <sodipodi:namedview
     id="namedview6"
     pagecolor="#ffffff"
     bordercolor="#666666"
     borderopacity="1.0"
     inkscape:pageshadow="2"
     inkscape:pageopacity="0.0"
     inkscape:pagecheckerboard="0"
     showgrid="false"
     inkscape:zoom="1.2617188"
     inkscape:cx="223.90093"
     inkscape:cy="256"
     inkscape:window-width="1563"
     inkscape:window-height="874"
     inkscape:window-x="564"
     inkscape:window-y="169"
     inkscape:window-maximized="0"
     inkscape:current-layer="svg4" />
  <!--!Font Awesome Free 6.7.2 by @fontawesome - https://fontawesome.com License - https://fontawesome.com/license/free Copyright 2025 Fonticons, Inc.-->
  <path
     d="M64 32C28.7 32 0 60.7 0 96L0 416c0 35.3 28.7 64 64 64l320 0c35.3 0 64-28.7 64-64l0-242.7c0-17-6.7-33.3-18.7-45.3L352 50.7C340 38.7 323.7 32 306.7 32L64 32zm0 96c0-17.7 14.3-32 32-32l192 0c17.7 0 32 14.3 32 32l0 64c0 17.7-14.3 32-32 32L96 224c-17.7 0-32-14.3-32-32l0-64zM224 288a64 64 0 1 1 0 128 64 64 0 1 1 0-128z"
     id="path2"
     style="stroke:none;stroke-opacity:1;fill:#ffffff;fill-opacity:1" />
</svg>
