<?xml version="1.0" encoding="UTF-8" standalone="no"?>
<svg
   viewBox="0 0 640 512"
   version="1.1"
   id="svg4"
   sodipodi:docname="wave-square-solid.svg"
   inkscape:version="1.1.1 (3bf5ae0d25, 2021-09-20)"
   xmlns:inkscape="http://www.inkscape.org/namespaces/inkscape"
   xmlns:sodipodi="http://sodipodi.sourceforge.net/DTD/sodipodi-0.dtd"
   xmlns="http://www.w3.org/2000/svg"
   xmlns:svg="http://www.w3.org/2000/svg">
  <defs
     id="defs8" />
  <sodipodi:namedview
     id="namedview6"
     pagecolor="#ffffff"
     bordercolor="#666666"
     borderopacity="1.0"
     inkscape:pageshadow="2"
     inkscape:pageopacity="0.0"
     inkscape:pagecheckerboard="0"
     showgrid="false"
     inkscape:zoom="1.2617188"
     inkscape:cx="320.19814"
     inkscape:cy="255.60372"
     inkscape:window-width="2560"
     inkscape:window-height="1351"
     inkscape:window-x="-9"
     inkscape:window-y="-9"
     inkscape:window-maximized="1"
     inkscape:current-layer="svg4" />
  <!--!Font Awesome Free 6.7.2 by @fontawesome - https://fontawesome.com License - https://fontawesome.com/license/free Copyright 2025 Fonticons, Inc.-->
  <path
     fill="#74C0FC"
     d="M128 64c0-17.7 14.3-32 32-32l160 0c17.7 0 32 14.3 32 32l0 352 96 0 0-160c0-17.7 14.3-32 32-32l128 0c17.7 0 32 14.3 32 32s-14.3 32-32 32l-96 0 0 160c0 17.7-14.3 32-32 32l-160 0c-17.7 0-32-14.3-32-32l0-352-96 0 0 160c0 17.7-14.3 32-32 32L32 288c-17.7 0-32-14.3-32-32s14.3-32 32-32l96 0 0-160z"
     id="path2"
     style="fill:#ffffff;fill-opacity:1" />
</svg>
